<svg xmlns="http://www.w3.org/2000/svg" id="Layer_2" data-name="Layer 2" viewBox="0 0 30.08 30"><defs><style>      .cls-1 {        fill: none;      }      .cls-2 {        fill: #3a3a3a;      }    </style></defs><g id="Layer_1-2" data-name="Layer 1"><g><rect class="cls-1" x=".08" width="30" height="30"></rect><g><path class="cls-2" d="M5.21,10.35h-.43c-.28,0-.5.22-.5.5s.22.5.5.5h.43c.28,0,.5-.22.5-.5s-.22-.5-.5-.5Z"></path><path class="cls-2" d="M4.38,2.19l-.81.87c-.19.2-.18.52.02.71.1.09.22.13.34.13.13,0,.27-.05.37-.16l.81-.87c.19-.2.18-.52-.02-.71-.2-.19-.52-.18-.71.03Z"></path><path class="cls-2" d="M29.93,11.37h-6.27l.18-1.95c.07-.79-.25-1.56-.87-2.06-.62-.5-1.44-.66-2.2-.42l-.25.08-3.61.47h-3.63l-3.61-.47-.24-.07v-2.9C9.43,1.81,7.62,0,5.39,0S1.35,1.81,1.35,4.04v4.55h-.3c-.57,0-1.04.47-1.04,1.04v2.53c0,.52.42.94.94.94h.46v7.79c0,.28.22.5.5.5s.5-.22.5-.5v-7.79h4.29l.12,1.35c-1.04.21-1.83,1.14-1.83,2.25v.4c-.42.12-.73.49-.73.94v5.12c0,.55.44.99.99.99h.19v.97c0,.28.22.5.5.5h1.32c.28,0,.5-.22.5-.5v-.97h14.69v.97c0,.28.22.5.5.5h1.32c.28,0,.5-.22.5-.5v-.97h.19c.55,0,.99-.45.99-.99v-5.12c0-.45-.31-.82-.72-.94v-.41c0-.13-.02-.26-.04-.39h3.05v4.89c0,.28.22.5.5.5s.5-.22.5-.5v-4.89h.2l.55-.05v-4.35l-.05-.55ZM22.34,8.14c.36.29.55.73.5,1.19l-.46,5.09h-.17v-.27c0-.77-.42-1.46-1.08-1.81v-4.46c.42-.11.86-.02,1.21.26ZM17.02,13.11h.02c.05-.01.1-.02.16-.02h2.98c.11,0,.21.02.31.05.44.14.73.54.73,1v.27h-5.06v-.27c0-.51.36-.95.86-1.03ZM20.14,12.1h-2.69v-3.67l2.69-.35v4.02ZM16.45,12.24c-.77.3-1.29,1.04-1.29,1.9v.27h-.12v-.27c0-.86-.52-1.6-1.29-1.9v-3.75h2.69v3.75ZM7.35,9.33c-.04-.46.14-.9.5-1.19.35-.28.79-.38,1.21-.26v4.45c-.66.35-1.09,1.04-1.09,1.81v.27h-.16l-.46-5.09ZM8.98,14.14c0-.46.3-.87.74-1h0c.09-.03.2-.04.31-.04h2.97c.06,0,.12,0,.18.02h0c.5.09.86.52.86,1.03v.27h-5.07v-.27ZM12.76,12.1h-2.69v-4.02l2.69.35v3.67ZM2.35,4.04c0-1.68,1.36-3.04,3.04-3.04s3.04,1.37,3.04,3.04v2.82c-.44.05-.86.21-1.21.5-.39.32-.65.75-.78,1.23H2.35v-4.55ZM2.1,12.16c-.06-.03-.13-.05-.2-.05s-.15.02-.21.05h-.69s.04-2.57.04-2.57h5.33l.23,2.53-4.49.04ZM5.98,16.71c0-.71.58-1.3,1.29-1.3h15.66c.71,0,1.29.58,1.29,1.3v.35H5.98v-.35ZM6.75,24.63h-.32v-.47h.32v.47ZM23.76,24.63h-.32v-.47h.32v.47ZM24.26,23.17s0,0,0,0h-1.32s0,0,0,0H7.29s-.02,0-.03,0h-1.32s-.02,0-.04,0h-.64s0-5.11,0-5.11h2.46s17.23,0,17.23,0v5.1h-.68ZM23.39,14.46l.19-2.09h5.41v2.95h-4.24c-.33-.43-.8-.75-1.35-.86Z"></path><path class="cls-2" d="M25.54,13.26c-.06.02-.12.06-.17.11-.09.09-.14.22-.14.35s.05.26.14.35c.1.1.22.15.36.15.06,0,.13,0,.19-.04.06-.02.11-.06.16-.11.1-.09.15-.22.15-.35s-.06-.26-.15-.35c-.14-.14-.36-.19-.54-.11Z"></path></g></g></g></svg>