<svg xmlns="http://www.w3.org/2000/svg" id="Layer_2" data-name="Layer 2" viewBox="0 0 30 30"><defs><style>      .cls-1 {        fill: none;      }      .cls-2 {        fill: #3a3a3a;      }    </style></defs><g id="Layer_1-2" data-name="Layer 1"><g><path class="cls-2" d="M28.3,14.23v-.64c0-1.44-1.06-2.63-2.45-2.85l.82-9.17c.04-.48-.16-.95-.53-1.25-.38-.31-.88-.4-1.35-.26l-2.51.78H7.71L5.2.07c-.46-.15-.96-.05-1.34.26-.38.31-.58.77-.54,1.25l.83,9.17c-1.38.21-2.45,1.4-2.45,2.85v.64c-.53.01-.97.45-.97.99v4.31c0,.55.45.99.99.99h.58v.72c0,.28.22.5.5.5h1.75c.28,0,.5-.22.5-.5v-.72h19.87v.72c0,.28.22.5.5.5h1.75c.28,0,.5-.22.5-.5v-.72h.58c.55,0,.99-.45.99-.99v-4.31c0-.54-.43-.97-.96-.99ZM25.09,1.02c.15-.05.3-.02.42.08.12.1.18.24.16.39l-.83,9.22h-.54v-.53c0-1-.57-1.89-1.44-2.31V1.71l2.23-.69ZM17.54,8.64h.01c.08-.02.16-.02.25-.02h3.96c.16,0,.31.02.46.07.65.21,1.09.8,1.09,1.49v.53h-7.06v-.53c0-.77.54-1.41,1.29-1.54ZM17.96,1.84h3.91v5.77s-.07,0-.11,0h-3.8V1.84ZM13.05,1.84h3.91v5.91c-1.01.35-1.71,1.31-1.71,2.42v.53h-.49v-.53c0-1.11-.7-2.07-1.71-2.42V1.84ZM7.79,8.68h0c.14-.04.3-.07.46-.07h3.95c.09,0,.18,0,.27.02h0c.75.12,1.29.77,1.29,1.54v.53h-7.07v-.53c0-.69.44-1.29,1.1-1.49ZM12.05,7.61h-3.8s-.07,0-.11,0V1.84h3.91v5.77ZM4.48,1.1c.06-.05.21-.14.42-.08l2.24.69v6.15c-.88.42-1.45,1.31-1.45,2.31v.53h-.53l-.84-9.21c-.02-.21.11-.34.17-.39ZM2.71,13.59c0-1.04.84-1.89,1.88-1.89h20.83c1.04,0,1.88.85,1.88,1.89v.63H2.71v-.63ZM4.06,20.74h-.75v-.22h.75v.22ZM26.69,20.74h-.75v-.22h.75v.22ZM27.19,19.52s0,0,0,0h-1.75s0,0,0,0H4.6s-.02,0-.03,0h-1.75s-.02,0-.04,0h-1.03s0-4.31,0-4.31h3.32s23.21,0,23.21,0v4.3h-1.07Z"></path><rect class="cls-1" width="30" height="30"></rect></g></g></svg>