<svg xmlns="http://www.w3.org/2000/svg" id="Layer_2" data-name="Layer 2" viewBox="0 0 30 30"><defs><style>      .cls-1 {        fill: none;      }      .cls-2 {        fill: #3a3a3a;      }    </style></defs><g id="Layer_1-2" data-name="Layer 1"><g><rect class="cls-1" width="30" height="30"></rect><path class="cls-2" d="M28.34.5v5.3c-.37-.26-.82-.41-1.31-.41h-15.3c-.24-1.28-1.35-2.25-2.7-2.25h-2.43c-1.37,0-2.5,1.01-2.71,2.31-.18.04-.34.11-.5.2V.99c0-.55-.45-.99-.99-.99h-.76c-.55,0-.99.45-.99.99v24.92c0,.55.45.99.99.99h.76c.55,0,.99-.44.99-.99v-3.17h24.93v3.17h1V.5h-1ZM11.73,17.73c-.24-1.28-1.35-2.25-2.7-2.25h-2.43c-1.37,0-2.5,1.01-2.71,2.31-.18.04-.34.11-.5.2v-7.59h24.93v7.74c-.37-.26-.82-.41-1.31-.41h-15.3ZM10.71,17.73h-5.78c.22-.72.89-1.25,1.68-1.25h2.43c.79,0,1.46.53,1.68,1.25ZM6.61,4.14h2.43c.79,0,1.46.53,1.68,1.25h-5.78c.22-.72.89-1.25,1.68-1.25ZM4.37,6.39h22.66c.72,0,1.31.59,1.31,1.31v1.71H3.41s0-2.05,0-2.05c0-.53.43-.96.96-.96ZM2.41,25.9h-.74s0-24.9,0-24.9h.75s0,6.36,0,6.36v18.54ZM3.41,21.75v-2.06c0-.53.43-.96.96-.96h22.66c.72,0,1.31.59,1.31,1.31v1.71H3.41Z"></path></g></g></svg>