<svg xmlns="http://www.w3.org/2000/svg" id="Layer_2" data-name="Layer 2" viewBox="0 0 30 30"><defs><style>      .cls-1 {        fill: none;      }      .cls-2 {        fill: #3a3a3a;      }    </style></defs><g id="Layer_1-2" data-name="Layer 1"><g><rect class="cls-1" width="30" height="30"></rect><g><path class="cls-2" d="M28.27,0H1.73c-.55,0-.99.45-.99.99v21.2h2.37v2.02c0,.44.36.79.79.79h1.32c.44,0,.79-.36.79-.79v-2.02h17.97v2.02c0,.44.36.79.79.79h1.32c.44,0,.79-.36.79-.79v-2.02h2.37V.99c0-.55-.45-.99-.99-.99ZM1.73,1h12.77s0,4.3,0,4.3H1.74V1ZM5.02,24.01h-.91v-1.81h.91v1.81ZM25.89,24.01h-.91v-1.81h.91v1.81ZM28.26,21.2H1.74v-4.3h26.52v4.3ZM28.26,15.9H1.74v-4.3h26.52v4.3ZM28.26,10.6H1.74v-4.3h26.52v4.3ZM15.5,5.3V1h12.76s0,4.3,0,4.3h-12.76Z"></path><path class="cls-2" d="M22.78,2.65h-1.95c-.28,0-.5.22-.5.5s.22.5.5.5h1.95c.28,0,.5-.22.5-.5s-.22-.5-.5-.5Z"></path><path class="cls-2" d="M9.16,2.65h-1.95c-.28,0-.5.22-.5.5s.22.5.5.5h1.95c.28,0,.5-.22.5-.5s-.22-.5-.5-.5Z"></path><path class="cls-2" d="M14.03,8.95h1.95c.28,0,.5-.22.5-.5s-.22-.5-.5-.5h-1.95c-.28,0-.5.22-.5.5s.22.5.5.5Z"></path><path class="cls-2" d="M14.03,14.25h1.95c.28,0,.5-.22.5-.5s-.22-.5-.5-.5h-1.95c-.28,0-.5.22-.5.5s.22.5.5.5Z"></path><path class="cls-2" d="M14.03,19.55h1.95c.28,0,.5-.22.5-.5s-.22-.5-.5-.5h-1.95c-.28,0-.5.22-.5.5s.22.5.5.5Z"></path></g></g></g></svg>