<svg xmlns="http://www.w3.org/2000/svg" id="Layer_2" data-name="Layer 2" viewBox="0 0 30 30"><defs><style>      .cls-1 {        fill: none;      }      .cls-2 {        fill: #3a3a3a;      }    </style></defs><g id="Layer_1-2" data-name="Layer 1"><g><rect class="cls-1" width="30" height="30"></rect><g><path class="cls-2" d="M26.59,12.08h-2.76v-3.26C23.82,3.96,19.87,0,15,0S6.18,3.96,6.18,8.82v3.26h-2.76c-.55,0-.99.45-.99.99v3.67c0,.55.45.99.99.99h1.09v10.98c0,.44.36.79.79.79h1.09c.44,0,.79-.36.79-.79v-10.98h15.65v10.98c0,.44.36.79.79.79h1.09c.44,0,.79-.36.79-.79v-10.98h1.09c.55,0,.99-.44.99-.99v-3.67c0-.55-.45-.99-.99-.99ZM7.18,8.82c0-4.31,3.51-7.82,7.82-7.82s7.82,3.51,7.82,7.82v3.26h-.74v-3.26c0-3.9-3.18-7.08-7.08-7.08s-7.08,3.18-7.08,7.08v3.26h-.74v-3.26ZM8.92,12.08v-3.26c0-3.35,2.73-6.08,6.08-6.08s6.08,2.73,6.08,6.08v3.26h-12.16ZM6.18,28.5h-.67v-10.77h.67v10.77ZM4.5,16.73h0s-1.08,0-1.08,0v-3.66s11.08,0,11.08,0v3.66h-7.32s0,0,0,0h-2.67ZM24.5,28.5h-.67v-10.77h.67v10.77ZM26.58,16.73h-1.08s0,0,0,0h-2.67s-7.32,0-7.32,0v-3.66h11.08s0,3.65,0,3.65Z"></path><path class="cls-2" d="M20.12,15.41h1.71c.28,0,.5-.22.5-.5s-.22-.5-.5-.5h-1.71c-.28,0-.5.22-.5.5s.22.5.5.5Z"></path><path class="cls-2" d="M8.17,15.41h1.71c.28,0,.5-.22.5-.5s-.22-.5-.5-.5h-1.71c-.28,0-.5.22-.5.5s.22.5.5.5Z"></path><path class="cls-2" d="M13.37,5.56l-2.81,3.02c-.19.2-.18.52.03.71.1.09.22.13.34.13.13,0,.27-.05.37-.16l2.81-3.02c.19-.2.18-.52-.03-.71-.2-.19-.52-.18-.71.03Z"></path><path class="cls-2" d="M17.28,20.48h-4.57c-1.65,0-2.98,1.34-2.98,2.98v1.11h.94v4.14c0,.44.36.79.79.79h1.1c.44,0,.79-.36.79-.79v-4.14h3.28v4.14c0,.44.36.79.79.79h1.1c.44,0,.79-.36.79-.79v-4.14h.94v-1.11c0-1.65-1.34-2.98-2.98-2.98ZM12.36,28.5h-.68v-3.93h.68v3.93ZM13.36,23.57h-2.63v-.11c0-1.09.89-1.98,1.98-1.98h4.57c1.09,0,1.98.89,1.98,1.98v.11h-5.91ZM18.32,28.5h-.68v-3.93h.68v3.93Z"></path></g></g></g></svg>