<svg xmlns="http://www.w3.org/2000/svg" id="Layer_2" data-name="Layer 2" viewBox="0 0 30 30"><defs><style>      .cls-1 {        fill: none;      }      .cls-2 {        fill: #3a3a3a;      }    </style></defs><g id="Layer_1-2" data-name="Layer 1"><g><rect class="cls-1" width="30" height="30"></rect><g><path class="cls-2" d="M27.65,9.9H2.35c-.47,0-.91-.26-1.13-.67-.22-.42-.21-.92.05-1.32L6.03.59c.24-.37.64-.59,1.08-.59h15.79c.44,0,.84.22,1.08.59l4.75,7.33c.26.4.28.9.05,1.32-.23.42-.66.67-1.13.67ZM7.11,1c-.1,0-.19.05-.24.13l-4.75,7.32c-.08.13-.04.25-.01.29.03.05.1.15.25.15h25.29c.16,0,.23-.11.25-.15s.07-.17-.01-.29l-4.75-7.32c-.05-.08-.14-.13-.24-.13H7.11Z"></path><path class="cls-2" d="M28.15,13.2H1.85c-.47,0-.91-.26-1.13-.67-.22-.42-.21-.92.05-1.32.15-.23.46-.3.69-.15.23.15.3.46.15.69-.08.13-.04.25-.01.29.03.05.1.15.25.15h26.29c.16,0,.23-.11.25-.15s.07-.17-.01-.29c-.15-.23-.08-.54.15-.69.23-.15.54-.08.69.15.26.4.28.9.05,1.32-.23.42-.66.67-1.13.67Z"></path><path class="cls-2" d="M28.15,16.36H1.85c-.47,0-.91-.26-1.13-.67-.22-.42-.21-.92.05-1.32.15-.23.46-.3.69-.15.23.15.3.46.15.69-.08.13-.04.25-.01.29.03.05.1.15.25.15h26.29c.16,0,.23-.11.25-.15s.07-.17-.01-.29c-.15-.23-.08-.54.15-.69.23-.15.54-.08.69.15.26.4.28.9.05,1.32-.23.42-.66.67-1.13.67Z"></path><path class="cls-2" d="M27.47,22.62H2.53c-1.18,0-2.13-.96-2.13-2.13v-2.69c0-.28.22-.5.5-.5s.5.22.5.5v2.69c0,.62.51,1.13,1.13,1.13h24.93c.62,0,1.13-.51,1.13-1.13v-2.69c0-.28.22-.5.5-.5s.5.22.5.5v2.69c0,1.18-.96,2.13-2.13,2.13Z"></path><g><path class="cls-2" d="M5.6,20.96c-.28,0-.5-.22-.5-.5v-2.66c0-.28.22-.5.5-.5s.5.22.5.5v2.66c0,.28-.22.5-.5.5Z"></path><path class="cls-2" d="M10.3,20.96c-.28,0-.5-.22-.5-.5v-2.66c0-.28.22-.5.5-.5s.5.22.5.5v2.66c0,.28-.22.5-.5.5Z"></path><path class="cls-2" d="M15,20.96c-.28,0-.5-.22-.5-.5v-2.66c0-.28.22-.5.5-.5s.5.22.5.5v2.66c0,.28-.22.5-.5.5Z"></path><path class="cls-2" d="M19.7,20.96c-.28,0-.5-.22-.5-.5v-2.66c0-.28.22-.5.5-.5s.5.22.5.5v2.66c0,.28-.22.5-.5.5Z"></path><path class="cls-2" d="M24.4,20.96c-.28,0-.5-.22-.5-.5v-2.66c0-.28.22-.5.5-.5s.5.22.5.5v2.66c0,.28-.22.5-.5.5Z"></path></g><circle class="cls-2" cx="8.83" cy="2.52" r=".37"></circle><circle class="cls-2" cx="12.57" cy="2.52" r=".37"></circle><circle class="cls-2" cx="16.32" cy="2.52" r=".37"></circle><circle class="cls-2" cx="20.54" cy="2.52" r=".37"></circle><circle class="cls-2" cx="7.83" cy="4.95" r=".37"></circle><circle class="cls-2" cx="12.22" cy="4.95" r=".37"></circle><circle class="cls-2" cx="16.86" cy="4.95" r=".37"></circle><circle class="cls-2" cx="21.91" cy="4.95" r=".37"></circle><circle class="cls-2" cx="6.69" cy="7.49" r=".37"></circle><circle class="cls-2" cx="11.86" cy="7.49" r=".37"></circle><circle class="cls-2" cx="17.37" cy="7.49" r=".37"></circle><circle class="cls-2" cx="23.18" cy="7.49" r=".37"></circle></g></g></g></svg>