<svg xmlns="http://www.w3.org/2000/svg" id="Layer_2" data-name="Layer 2" viewBox="0 0 30 30"><defs><style>      .cls-1 {        fill: none;      }      .cls-2 {        fill: #3a3a3a;      }    </style></defs><g id="Layer_1-2" data-name="Layer 1"><g><rect class="cls-1" width="30" height="30"></rect><g><path class="cls-2" d="M15,0C10.36,0,6.59,3.77,6.59,8.41v18.71c0,.28.22.5.5.5h15.82c.28,0,.5-.22.5-.5V8.41C23.41,3.77,19.64,0,15,0ZM22.41,26.62H7.59V8.41c0-4.09,3.32-7.41,7.41-7.41s7.41,3.32,7.41,7.41v18.21Z"></path><path class="cls-2" d="M15,1.99c-3.54,0-6.42,2.88-6.42,6.42v16.72c0,.28.22.5.5.5h11.85c.28,0,.5-.22.5-.5V8.41c0-3.54-2.88-6.42-6.43-6.42ZM20.43,24.63h-10.85V8.41c0-2.99,2.43-5.42,5.42-5.42s5.43,2.43,5.43,5.42v16.22Z"></path><path class="cls-2" d="M13.63,6.17l-2.56,2.56c-.2.2-.2.51,0,.71.1.1.23.15.35.15s.26-.05.35-.15l2.56-2.56c.2-.2.2-.51,0-.71s-.51-.2-.71,0Z"></path><path class="cls-2" d="M15.18,5.32s-.1-.08-.16-.1c-.12-.05-.26-.05-.38,0-.06.02-.11.06-.16.1-.05.05-.08.11-.11.17-.03.06-.04.12-.04.19,0,.06,0,.13.04.19.02.06.06.11.11.16.09.1.22.15.35.15.14,0,.26-.05.35-.15.05-.05.09-.1.12-.16.02-.06.03-.13.03-.19,0-.07,0-.13-.04-.19-.02-.06-.06-.12-.11-.17Z"></path></g></g></g></svg>