<svg xmlns="http://www.w3.org/2000/svg" id="Layer_2" data-name="Layer 2" viewBox="0 0 30 30"><defs><style>      .cls-1 {        fill: none;      }      .cls-2 {        fill: #3a3a3a;      }    </style></defs><g id="Layer_1-2" data-name="Layer 1"><g><rect class="cls-1" width="30" height="30"></rect><g><path class="cls-2" d="M26.32,0H3.68c-.9,0-1.64.74-1.64,1.64v6.88c0,.7.45,1.3,1.07,1.53v17.87s.02.06.03.09c0,.03,0,.07,0,.1,0,.02.02.02.03.04.02.04.06.07.09.11s.07.07.11.09c.02,0,.02.03.04.03.06.03.13.04.19.04h22.78c.06,0,.13-.01.19-.04.02,0,.02-.02.04-.03.04-.02.07-.06.11-.09s.07-.07.09-.11c0-.02.03-.02.03-.04.01-.03,0-.06,0-.1,0-.03.03-.06.03-.09V10.05c.62-.23,1.07-.83,1.07-1.53V1.64c0-.9-.74-1.64-1.64-1.64ZM23.98,10.15v15.36H6.02v-15.36h17.97ZM25.89,26.71l-.91-.91v-15.65h.91v16.56ZM5.02,25.8l-.91.91V10.15h.91v15.65ZM4.82,27.42l.91-.91h18.55l.91.91H4.82ZM26.96,8.51c0,.35-.29.64-.64.64H3.68c-.35,0-.64-.29-.64-.64V1.64c0-.35.29-.64.64-.64h22.65c.35,0,.64.29.64.64v6.88Z"></path><path class="cls-2" d="M16.81,4.58h-3.62c-.28,0-.5.22-.5.5s.22.5.5.5h3.62c.28,0,.5-.22.5-.5s-.22-.5-.5-.5Z"></path></g></g></g></svg>