<svg xmlns="http://www.w3.org/2000/svg" id="Layer_2" data-name="Layer 2" viewBox="0 0 30 30"><defs><style>      .cls-1 {        fill: none;      }      .cls-2 {        fill: #3a3a3a;      }    </style></defs><g id="Layer_1-2" data-name="Layer 1"><g><rect class="cls-1" width="30" height="30"></rect><path class="cls-2" d="M26.32,0H3.68c-.9,0-1.64.74-1.64,1.64v13.13c0,.7.45,1.3,1.07,1.53v2.55c0,.53.43.96.96.96h1c.53,0,.96-.43.96-.96v-2.44h17.97v2.44c0,.53.43.96.96.96h1c.53,0,.96-.43.96-.96v-2.55c.63-.23,1.07-.83,1.07-1.53V1.64c0-.9-.74-1.64-1.64-1.64ZM3.68,1h22.65c.35,0,.64.29.64.64v3.02H3.04V1.64c0-.35.29-.64.64-.64ZM4.11,18.81v-2.34h.91l.04,2.34h-.95ZM24.98,18.81v-2.34h.91l.04,2.34h-.95ZM26.32,15.41H3.68c-.35,0-.64-.29-.64-.64V5.66h23.93v9.11c0,.35-.29.64-.64.64Z"></path></g></g></svg>