<svg xmlns="http://www.w3.org/2000/svg" id="Layer_2" data-name="Layer 2" viewBox="0 0 30 30"><defs><style>      .cls-1 {        fill: none;      }      .cls-2 {        fill: #3a3a3a;      }    </style></defs><g id="Layer_1-2" data-name="Layer 1"><g><rect class="cls-1" width="30" height="30"></rect><path class="cls-2" d="M28.99,1.27c0-.7-.57-1.27-1.27-1.27H2.28c-.7,0-1.27.57-1.27,1.27v.64c0,.29.12.55.29.77-.17.22-.29.47-.29.77v14.26c0,.7.57,1.27,1.27,1.27h25.44c.7,0,1.27-.57,1.27-1.27V3.45c0-.29-.12-.55-.29-.77.17-.22.29-.47.29-.77v-.64ZM2.01,1.27c0-.15.12-.27.27-.27h25.44c.15,0,.27.12.27.27v.64c0,.15-.12.27-.27.27H2.28c-.15,0-.27-.12-.27-.27v-.64ZM27.99,3.45v6.66h-5.75V3.18h5.48c.15,0,.27.12.27.27ZM2.01,3.45c0-.15.12-.27.27-.27h5.48v6.93H2.01V3.45ZM21.25,12.71h-5.75v-4.26h5.75v4.26ZM8.75,8.44h5.75v4.26h-5.75v-4.26ZM21.25,7.44h-5.75V3.18h5.75v4.26ZM14.5,7.44h-5.75V3.18h5.75v4.26ZM8.75,13.71h5.75v4.27h-5.75v-4.27ZM15.5,13.71h5.75v4.27h-5.75v-4.27ZM2.01,17.7v-6.6h5.75v6.87H2.28c-.15,0-.27-.12-.27-.27ZM27.72,17.97h-5.48v-6.87h5.75v6.6c0,.15-.12.27-.27.27Z"></path></g></g></svg>