<svg xmlns="http://www.w3.org/2000/svg" id="Layer_2" data-name="Layer 2" viewBox="0 0 30 30"><defs><style>      .cls-1 {        fill: none;      }      .cls-2 {        fill: #3a3a3a;      }    </style></defs><g id="Layer_1-2" data-name="Layer 1"><g><rect class="cls-1" width="30" height="30"></rect><g><path class="cls-2" d="M27.9,0H2.1C1.27,0,.59.68.59,1.51s.68,1.51,1.51,1.51h.47v17.86c0,.53.43.96.96.96h1c.53,0,.96-.43.96-.96V3.02h8.48v17.14h9.48v.72c0,.53.43.96.96.96h1c.53,0,.96-.43.96-.96v-.72h1.07V3.02h.47c.83,0,1.51-.68,1.51-1.51s-.68-1.51-1.51-1.51ZM4.52,20.83h-.95V3.02h.91l.04,17.81ZM14.96,8.98h11.46v4.96h-11.46v-4.96ZM25.4,20.83h-.95v-.67h.93l.03.67ZM26.35,19.16h-11.39v-4.22h11.46v4.22h-.07ZM26.43,7.98h-11.46V3.02h11.46v4.96ZM27.9,2.02H2.1c-.28,0-.51-.23-.51-.51s.23-.51.51-.51h25.79c.28,0,.51.23.51.51s-.23.51-.51.51Z"></path><path class="cls-2" d="M19.79,5.96h1.81c.28,0,.5-.22.5-.5s-.22-.5-.5-.5h-1.81c-.28,0-.5.22-.5.5s.22.5.5.5Z"></path></g></g></g></svg>