<svg xmlns="http://www.w3.org/2000/svg" id="Layer_2" data-name="Layer 2" viewBox="0 0 30 30"><defs><style>      .cls-1 {        fill: none;      }      .cls-2 {        fill: #3a3a3a;      }    </style></defs><g id="Layer_1-2" data-name="Layer 1"><g><rect class="cls-1" width="30" height="30"></rect><path class="cls-2" d="M28.53,0H1.47C.77,0,.2.57.2,1.27v26.38c0,.7.57,1.27,1.27,1.27h27.06c.7,0,1.27-.57,1.27-1.27V1.27c0-.7-.57-1.27-1.27-1.27ZM28.8,1.27v12.69h-2.18V1h1.91c.15,0,.27.12.27.27ZM12.91,21.32h-2.18V7.71h2.18v13.61ZM12.91,6.71h-2.18V1h2.18v5.71ZM9.73,13.96h-2.18V1h2.18v12.96ZM6.56,21.32h-2.18V7.71h2.18v13.61ZM6.56,6.71h-2.18V1h2.18v5.71ZM4.38,22.32h2.18v5.6h-2.18v-5.6ZM7.56,14.96h2.18v12.96h-2.18v-12.96ZM10.73,22.32h2.18v5.6h-2.18v-5.6ZM13.91,1h2.18v12.96h-2.16v1h2.16v12.96h-2.18V1ZM17.09,14.96h.02v-1h-.02V1h2.18v5.71h-2.16v1h2.16v13.61h-2.16v1h2.16v5.6h-2.18v-12.96ZM25.62,21.32h-2.18V7.71h2.18v13.61ZM25.62,6.71h-2.18V1h2.18v5.71ZM22.44,13.96h-2.18v-6.25h.02v-1h-.02V1h2.18v12.96ZM20.27,22.32h.02v-1h-.02v-6.36h2.18v12.96h-2.18v-5.6ZM23.44,22.32h2.18v5.6h-2.18v-5.6ZM1.47,1h1.91v12.96H1.2V1.27c0-.15.12-.27.27-.27ZM1.2,27.65v-12.69h2.18v12.96h-1.91c-.15,0-.27-.12-.27-.27ZM28.53,27.92h-1.91v-12.96h2.18v12.69c0,.15-.12.27-.27.27Z"></path></g></g></svg>