<svg xmlns="http://www.w3.org/2000/svg" id="Layer_2" data-name="Layer 2" viewBox="0 0 30 30"><defs><style>      .cls-1 {        fill: none;      }      .cls-2 {        fill: #3a3a3a;      }    </style></defs><g id="Layer_1-2" data-name="Layer 1"><g><rect class="cls-1" width="30" height="30"></rect><g><path class="cls-2" d="M26.92,0H3.08c-1.02,0-1.85.83-1.85,1.85v25.55c0,1.02.83,1.85,1.85,1.85h23.85c1.02,0,1.85-.83,1.85-1.85V1.85c0-1.02-.83-1.85-1.85-1.85ZM10.08,28.24H3.08c-.47,0-.85-.38-.85-.85V1.85c0-.47.38-.85.85-.85h7v27.24ZM18.92,28.24h-7.85V1h7.85v27.24ZM19.92,9.64h7.85v7.64h-7.85v-7.64ZM26.92,1c.47,0,.85.38.85.85v6.79h-7.85V1h7ZM26.92,28.24h-7v-9.97h7.85v9.13c0,.47-.38.85-.85.85Z"></path><path class="cls-2" d="M8.3,16.22c.28,0,.5-.22.5-.5v-3.55c0-.28-.22-.5-.5-.5s-.5.22-.5.5v3.55c0,.28.22.5.5.5Z"></path><path class="cls-2" d="M12.74,16.22c.28,0,.5-.22.5-.5v-3.55c0-.28-.22-.5-.5-.5s-.5.22-.5.5v3.55c0,.28.22.5.5.5Z"></path></g></g></g></svg>