<svg xmlns="http://www.w3.org/2000/svg" viewBox="0 0 118.48 55.62"><defs><style>.cls-1{fill:#f7c115;}.cls-2{fill:#2b255e;}</style></defs><g id="Layer_2" data-name="Layer 2"><g id="Layer_1-2" data-name="Layer 1"><polygon class="cls-1" points="80.29 29.44 59.26 8.41 38.23 29.44 29.8 29.44 59.26 0 88.68 29.44 80.29 29.44"/><polygon class="cls-1" points="61.9 29.44 55.03 22.52 59.24 18.31 70.24 29.44 61.9 29.44"/><path class="cls-2" d="M5.57,54.33H2.26l-.48,1.16H0l3-7.42H4.81l3,7.42H6ZM5,53,3.91,50.26,2.81,53Z"/><path class="cls-2" d="M8.66,54.39l.92-1.09a3.63,3.63,0,0,0,2.44,1c.8,0,1.21-.36,1.21-.83s-.43-.69-1.57-.95C10.1,52.13,9,51.69,9,50.25s1.13-2.31,2.75-2.31a4.34,4.34,0,0,1,2.91,1l-.84,1.15a3.42,3.42,0,0,0-2.11-.82c-.69,0-1.1.36-1.1.8s.45.71,1.59,1c1.6.36,2.66.83,2.66,2.21S13.77,55.62,12,55.62A4.76,4.76,0,0,1,8.66,54.39Z"/><path class="cls-2" d="M19.82,51.32h3.29v3.06a4.26,4.26,0,0,1-3,1.24,3.84,3.84,0,1,1,0-7.68,4.26,4.26,0,0,1,3,1.24l-1.16,1a2.52,2.52,0,0,0-1.85-.83,2.39,2.39,0,0,0,0,4.78,2.53,2.53,0,0,0,1.45-.47V52.56H19.82Z"/><path class="cls-2" d="M31.44,48.07v7.42H29.85V52.42H26.47v3.07H24.88V48.07h1.59V51h3.38V48.07Z"/><path class="cls-2" d="M38.32,54.33H35l-.48,1.16H32.75l3-7.42h1.78l3,7.42h-1.8ZM37.77,53l-1.11-2.72L35.56,53Z"/><path class="cls-2" d="M46.36,55.49l-1.7-2.41H43.48v2.41H41.89V48.07h3.34a2.57,2.57,0,0,1,2.8,2.5,2.42,2.42,0,0,1-1.68,2.33l1.82,2.59Zm-2.88-3.87h1.58c.79,0,1.33-.41,1.33-1s-.54-1-1.33-1H43.48Z"/><path class="cls-2" d="M54.7,49.5v1.61h3.73v1.44H54.7v2.94H53.1V48.07h5.72V49.5Z"/><path class="cls-2" d="M60.38,52.28V48.07H62v4.15a1.78,1.78,0,1,0,3.54,0V48.07h1.6v4.21a3.36,3.36,0,0,1-6.72,0Z"/><path class="cls-2" d="M73.44,55.49l-1.69-2.41H70.57v2.41H69V48.07h3.34a2.57,2.57,0,0,1,2.8,2.5,2.42,2.42,0,0,1-1.69,2.33l1.83,2.59Zm-2.87-3.87h1.58c.79,0,1.33-.41,1.33-1s-.54-1-1.33-1H70.57Z"/><path class="cls-2" d="M76.8,48.07h1.59L82,52.87v-4.8h1.6v7.42H82l-3.58-4.8v4.8H76.8Z"/><path class="cls-2" d="M85.56,48.07h1.6v7.42h-1.6Z"/><path class="cls-2" d="M91,49.5H88.68V48.07h6.23V49.5H92.6v6H91Z"/><path class="cls-2" d="M96.4,52.28V48.07H98v4.15a1.77,1.77,0,1,0,3.53,0V48.07h1.6v4.21a3.36,3.36,0,0,1-6.72,0Z"/><path class="cls-2" d="M109.47,55.49l-1.7-2.41h-1.18v2.41H105V48.07h3.34a2.57,2.57,0,0,1,2.8,2.5,2.42,2.42,0,0,1-1.68,2.33l1.82,2.59Zm-2.88-3.87h1.58c.79,0,1.33-.41,1.33-1s-.54-1-1.33-1h-1.58Z"/><path class="cls-2" d="M114.36,49.5V51h3.73v1.43h-3.73v1.64h4.12v1.43h-5.72V48.07h5.72V49.5Z"/><path class="cls-2" d="M19.12,40.86H20v1.08H19a2.41,2.41,0,0,1-1.17-.26,3.29,3.29,0,0,1-.92,2.11,2.54,2.54,0,0,1-1.85.72,3.29,3.29,0,0,1-1.56-.4v-1a2.79,2.79,0,0,0,1.36.37,1.66,1.66,0,0,0,1.34-.57,2.43,2.43,0,0,0,.48-1.59V36.76l1.15-.61h0v3.64A1.13,1.13,0,0,0,19.12,40.86Z"/><path class="cls-2" d="M25.8,40.86h3.52v1.08H25.69a3.79,3.79,0,0,1-1.43-.28,3.8,3.8,0,0,1-1.44.28H19.2V40.86h3.71a10.41,10.41,0,0,1-2-2.31V38a5,5,0,0,1,1.53-1.45,3.24,3.24,0,0,1,3.58,0A5.3,5.3,0,0,1,27.59,38v.56a10.17,10.17,0,0,1-2,2.31ZM22,38.27a7.34,7.34,0,0,0,2.26,2.22,7.52,7.52,0,0,0,2.26-2.23A3,3,0,0,0,24.25,37,2.82,2.82,0,0,0,22,38.27Zm2.23-3.74a.58.58,0,0,1-.65-.67.58.58,0,0,1,.65-.65.57.57,0,0,1,.64.65C24.87,34.31,24.66,34.53,24.23,34.53Z"/><path class="cls-2" d="M32.73,40.82a8,8,0,0,1,1.76-3.36A4.26,4.26,0,0,1,37.7,36,3,3,0,0,1,40.13,37a3.25,3.25,0,0,1,.76,2.2v.35a2.18,2.18,0,0,1-2.32,2.36H33a2.23,2.23,0,0,1-1.75-.7,2.25,2.25,0,0,1-1.75.7h-1V40.86h.88a1.16,1.16,0,0,0,1.31-1.33V37.66L31.86,37v2.49C31.86,40.27,32.15,40.71,32.73,40.82Zm7-1.35v-.24a2.17,2.17,0,0,0-.64-1.65A1.91,1.91,0,0,0,37.71,37a3.35,3.35,0,0,0-2.55,1.31,6.9,6.9,0,0,0-1.33,2.51H38.5C39.33,40.86,39.74,40.4,39.74,39.47Z"/><path class="cls-2" d="M43,41.94v-8l1.15-.61v8.61Z"/><path class="cls-2" d="M51.93,41.94a2.12,2.12,0,0,1-1.7-.72,2.42,2.42,0,0,1-.53-1.64V38l1.14-.61v2.12c0,.93.44,1.39,1.3,1.39h4.44c.86,0,1.29-.46,1.29-1.39V36.76L59,36.15v3.43a2.18,2.18,0,0,1-2.32,2.36Zm1.35-6.21a.59.59,0,0,1-.66-.67.58.58,0,0,1,.66-.65.57.57,0,0,1,.64.65C53.92,35.51,53.7,35.73,53.28,35.73Zm1.69,0a.58.58,0,0,1-.65-.67.58.58,0,0,1,.65-.65.57.57,0,0,1,.64.65C55.61,35.51,55.4,35.73,55,35.73Z"/><path class="cls-2" d="M63.48,41.94a2.24,2.24,0,0,1-1.79-.74,2.49,2.49,0,0,1-.53-1.63V33.94l1.15-.61v6.2a1.16,1.16,0,0,0,1.31,1.33h.88v1.08Z"/><path class="cls-2" d="M63.7,41.94V40.86h1.2a1.16,1.16,0,0,0,1.29-1.33V37.66L67.34,37v2.49a1.17,1.17,0,0,0,1.31,1.33h.62a1.17,1.17,0,0,0,1.31-1.33V37.2l1.15-.6v2.93A1.16,1.16,0,0,0,73,40.86h.63A1.17,1.17,0,0,0,75,39.53V36.76l1.15-.61v3.42a2.32,2.32,0,0,1-.68,1.77,2.24,2.24,0,0,1-1.61.6H72.9a2,2,0,0,1-1.75-.78,2,2,0,0,1-1.71.78h-.92a2.07,2.07,0,0,1-1.75-.78,2,2,0,0,1-1.75.78Zm6.5-7a.58.58,0,0,1-.65-.67.58.58,0,0,1,.65-.65.57.57,0,0,1,.64.65C70.84,34.67,70.63,34.89,70.2,34.89ZM71,33.3c-.39,0-.58-.2-.58-.6a.59.59,0,1,1,1.17,0A.52.52,0,0,1,71,33.3Zm.86,1.59a.59.59,0,0,1-.66-.67.58.58,0,0,1,.66-.65.57.57,0,0,1,.64.65C72.54,34.67,72.33,34.89,71.9,34.89Z"/><path class="cls-2" d="M81.8,41.52a3.46,3.46,0,0,1-1.24.2,2.2,2.2,0,0,1-1.87-.9,3,3,0,0,1-.58-1.91,3.1,3.1,0,0,1,.76-2.22A2.36,2.36,0,0,1,80.66,36a2.2,2.2,0,0,1,1.75.71A2.39,2.39,0,0,1,83,38.32v2.92a3.45,3.45,0,0,1-.79,2.39,2.56,2.56,0,0,1-2,.83,3.28,3.28,0,0,1-1.56-.39v-1a3,3,0,0,0,1.4.38,1.65,1.65,0,0,0,1.26-.5A2.25,2.25,0,0,0,81.8,41.52Zm0-3.14c0-.89-.38-1.34-1.14-1.34a1.27,1.27,0,0,0-1,.5,2.19,2.19,0,0,0-.38,1.35,2.26,2.26,0,0,0,.37,1.34,1.19,1.19,0,0,0,1,.5,1.34,1.34,0,0,0,1.2-.5Z"/><path class="cls-2" d="M89.37,40.86h.88v1.08h-1a2.45,2.45,0,0,1-1.18-.26,3.24,3.24,0,0,1-.92,2.11,2.52,2.52,0,0,1-1.84.72,3.23,3.23,0,0,1-1.56-.4v-1a2.76,2.76,0,0,0,1.36.37,1.64,1.64,0,0,0,1.33-.57,2.43,2.43,0,0,0,.48-1.59V36.76l1.15-.61h0v3.64A1.12,1.12,0,0,0,89.37,40.86Z"/><path class="cls-2" d="M95.29,40.86h2.49v1.08H94.52a4.06,4.06,0,0,1-.91-.09,3.94,3.94,0,0,1-.91.09H89.45V40.86h2.49a3.08,3.08,0,0,1-.83-2.1,2.9,2.9,0,0,1,.73-2.08A2.34,2.34,0,0,1,93.61,36a2.28,2.28,0,0,1,1.93.91,3,3,0,0,1,.58,1.88A3.12,3.12,0,0,1,95.29,40.86Zm-1.67-.12a2,2,0,0,0,1-.78A2.15,2.15,0,0,0,95,38.71a1.84,1.84,0,0,0-.38-1.22,1.27,1.27,0,0,0-1-.45,1.24,1.24,0,0,0-1,.46,1.78,1.78,0,0,0-.39,1.21A2.09,2.09,0,0,0,92.61,40,2,2,0,0,0,93.62,40.74Zm0-6.13a.58.58,0,0,1-.65-.67.65.65,0,1,1,1.3,0A.58.58,0,0,1,93.63,34.61Z"/><path class="cls-2" d="M99.16,38.32a2.15,2.15,0,0,1,2.3-2.35,2.24,2.24,0,0,1,2,.94A3.36,3.36,0,0,1,104,39a3.19,3.19,0,0,1-.75,2.25,2.18,2.18,0,0,1-1.71.72,2.41,2.41,0,0,1-1.83-.66,2.28,2.28,0,0,1-1.72.66H97V40.86h.89a1.16,1.16,0,0,0,1.3-1.33Zm1.15,1.3a1.09,1.09,0,0,0,1.22,1.24,1.12,1.12,0,0,0,1-.51,2.39,2.39,0,0,0,.36-1.41,2.31,2.31,0,0,0-.38-1.4,1.22,1.22,0,0,0-1-.5c-.76,0-1.15.45-1.15,1.34Z"/><path class="cls-2" d="M108.88,33a2.4,2.4,0,0,1,.86,3.24,2.42,2.42,0,0,1-2.07,1.2,2.33,2.33,0,0,1-1.19-.32,2.47,2.47,0,0,1-.86-.87,2.42,2.42,0,0,1-.31-1.18A2.42,2.42,0,0,1,106.48,33a2.31,2.31,0,0,1,1.2-.33A2.34,2.34,0,0,1,108.88,33Zm-.18,3.81a2,2,0,0,0,.74-.75,2,2,0,0,0,.27-1,2,2,0,0,0-.27-1,2,2,0,0,0-.73-.73,2,2,0,0,0-1-.27,2,2,0,0,0-1,.27,2.1,2.1,0,0,0-.73.75,2,2,0,0,0-.27,1,2,2,0,0,0,1,1.74,2,2,0,0,0,1,.27A2,2,0,0,0,108.7,36.82Zm-.14-1.71a.78.78,0,0,1-.39.29l.56.82h-.39l-.48-.76h-.74v.75h-.34V33.8h1a1.06,1.06,0,0,1,.71.21.74.74,0,0,1,.25.61A.85.85,0,0,1,108.56,35.11Zm-.83.07a.68.68,0,0,0,.47-.15.53.53,0,0,0,.17-.41.49.49,0,0,0-.17-.4.73.73,0,0,0-.47-.14h-.61v1.1Z"/></g></g></svg>