<svg xmlns="http://www.w3.org/2000/svg" id="Layer_2" data-name="Layer 2" viewBox="0 0 30 30"><defs><style>      .cls-1 {        fill: none;      }      .cls-2 {        fill: #3a3a3a;      }    </style></defs><g id="Layer_1-2" data-name="Layer 1"><g><rect class="cls-1" width="30" height="30"></rect><path class="cls-2" d="M26.28,18.5l1.98-6.07c.12-.37.07-.78-.16-1.1-.23-.32-.6-.51-1-.51h-.17l-1.81-8.81c-.22-1.17-1.15-2.02-2.21-2.02H7.1c-1.06,0-1.99.85-2.2,2.01l-1.82,8.82h-.18c-.39,0-.76.19-.99.5s-.29.73-.17,1.09l1.99,6.08c.13.4.43.7.79.88l-1.31,5.81c-.03.15,0,.3.1.42.09.12.24.19.39.19h1.04c.22,0,.42-.15.48-.36l1.69-5.9h16.2l1.69,5.9c.06.21.26.36.48.36h1.04c.15,0,.3-.07.39-.19.09-.12.13-.27.1-.42l-1.31-5.81c.37-.17.66-.47.79-.87ZM24.14,2.21l1.77,8.64c-.41.06-.76.31-.93.69l-.61,1.32c-.26-.3-.6-.51-.99-.58l-2.55-11.27h2.08c.58,0,1.09.51,1.22,1.21ZM6.32,13.58c.13-.22.36-.34.62-.34h16.13c.25,0,.47.12.61.33.13.2.15.43.06.65l-.84,1.81H7.12l-.84-1.8c-.09-.22-.08-.45.05-.65ZM14.5,12.23h-6.85L10.19,1h4.31v11.23ZM15.5,1h4.31l2.54,11.23h-6.85V1ZM5.87,2.2c.13-.7.64-1.2,1.22-1.2h2.07l-2.55,11.27c-.39.07-.73.27-.99.58l-.61-1.31c-.17-.38-.52-.63-.93-.69l1.79-8.65ZM2.69,12.11c-.03-.09,0-.16.03-.2s.08-.09.18-.09h1.01c.09,0,.16.05.2.13l1.24,2.65s.02.07.04.11l.86,1.82.23.49h0s17.05,0,17.05,0l1.1-2.37h0s0-.05.02-.07l1.23-2.65c.04-.08.11-.13.2-.13h1.01c.1,0,.16.06.18.09s.06.1.03.2l-1.99,6.08c-.07.2-.25.34-.47.34H5.14c-.21,0-.4-.14-.47-.34l-1.99-6.08ZM4.36,24.79h-.04l1.19-5.26h.35l-1.5,5.26ZM25.64,24.79l-1.5-5.26h.35l1.19,5.26h-.04Z"></path></g></g></svg>