<svg xmlns="http://www.w3.org/2000/svg" id="Layer_2" data-name="Layer 2" viewBox="0 0 30 30"><defs><style>      .cls-1 {        fill: none;      }      .cls-2 {        fill: #3a3a3a;      }    </style></defs><g id="Layer_1-2" data-name="Layer 1"><g><rect class="cls-1" width="30" height="30"></rect><g><path class="cls-2" d="M9.72,10.53h-3.62c-.28,0-.5.22-.5.5s.22.5.5.5h3.62c.28,0,.5-.22.5-.5s-.22-.5-.5-.5Z"></path><path class="cls-2" d="M23.91,10.53h-3.62c-.28,0-.5.22-.5.5s.22.5.5.5h3.62c.28,0,.5-.22.5-.5s-.22-.5-.5-.5Z"></path><path class="cls-2" d="M28.53,0H1.47C.77,0,.2.57.2,1.27v12.02c0,.7.57,1.27,1.27,1.27h.4v1c0,.28.22.5.5.5h1.87c.28,0,.5-.22.5-.5v-1h20.52v1c0,.28.22.5.5.5h1.87c.28,0,.5-.22.5-.5v-1h.4c.7,0,1.27-.57,1.27-1.27V1.27c0-.7-.57-1.27-1.27-1.27ZM3.74,15.06h-.87v-.19h.87v.19ZM27.13,15.06h-.87v-.19h.87v.19ZM1.47,1h27.06c.15,0,.27.12.27.27v6.63H1.2V1.27c0-.15.12-.27.27-.27ZM1.2,13.29v-4.39h13.3v4.66H1.47c-.15,0-.27-.12-.27-.27ZM28.53,13.56h-13.03v-4.66h13.3v4.39c0,.15-.12.27-.27.27Z"></path></g></g></g></svg>