<svg xmlns="http://www.w3.org/2000/svg" id="Layer_2" data-name="Layer 2" viewBox="0 0 30 30"><defs><style>      .cls-1 {        fill: none;      }      .cls-2 {        fill: #3a3a3a;      }    </style></defs><g id="Layer_1-2" data-name="Layer 1"><g><rect class="cls-1" width="30" height="30"></rect><path class="cls-2" d="M29.81,8.89v-1.45c0-.73-.59-1.32-1.32-1.32h-4.3l-.98-1.74c-.9-1.74-2.68-2.82-4.64-2.82H4.38l-.14-.32c-.33-.75-1.08-1.24-1.91-1.24h-1.19c-.32,0-.62.16-.8.43-.18.27-.2.61-.07.91l3.56,8c.23.52.75.86,1.33.86h.1l-1.23,5.44c-.03.15,0,.3.1.42.09.12.24.19.39.19h1.01c.22,0,.42-.15.48-.36l1.62-5.69h18.36l1.62,5.69c.06.21.26.36.48.36h1.01c.15,0,.3-.07.39-.19.09-.12.13-.27.1-.42l-1.23-5.44h.14c.73,0,1.32-.59,1.32-1.32ZM6.71,4.57c0-.4.32-.72.72-.72s.72.32.72.72-.32.72-.72.72-.72-.32-.72-.72ZM6.41,6.12l-.12-.27c.12.11.26.2.41.27h-.29ZM18.58,2.56c1.59,0,3.02.87,3.76,2.3l.71,1.26h-14.91c.59-.27,1-.87,1-1.56,0-.95-.77-1.72-1.72-1.72s-1.7.76-1.72,1.69l-.88-1.98h13.75ZM4.75,8.94L1.14,1h1.19c.43,0,.82.25.99.65l2.45,5.48h22.73c.18,0,.32.14.32.32v1.45c0,.18-.14.32-.32.32H5.16c-.18,0-.34-.1-.41-.27ZM5.15,15.26h0l1.14-5.05h.31l-1.44,5.05ZM28.48,15.26h0l-1.44-5.05h.31l1.14,5.05Z"></path></g></g></svg>