<svg xmlns="http://www.w3.org/2000/svg" id="Layer_2" data-name="Layer 2" viewBox="0 0 30 30"><defs><style>      .cls-1 {        fill: none;      }      .cls-2 {        fill: #3a3a3a;      }    </style></defs><g id="Layer_1-2" data-name="Layer 1"><g><rect class="cls-1" width="30" height="30"></rect><g><path class="cls-2" d="M21.64,24.24h0c-.6,0-1.42-.18-2.42-.52-.23-.08-.46-.11-.67-.08l-.4.04c-1.34.12-3.31.27-5.11.28-1.81,0-3.78-.15-5.11-.28l-.4-.04c-.23-.02-.46,0-.68.08-2.47.84-3.25.49-3.65.09-.41-.41-.76-1.21.15-3.74.09-.26.12-.5.09-.76-.24-1.94-.36-3.7-.35-5.24,0-1.46.12-3.13.35-4.95.03-.25,0-.51-.09-.78-.91-2.52-.55-3.31-.14-3.72.41-.41,1.2-.77,3.69.1.22.08.46.1.71.08l.33-.03c1.08-.1,3.18-.27,5.11-.28,1.93,0,4.03.18,5.11.28l.34.03c.26.02.49,0,.69-.08,2.5-.87,3.29-.51,3.7-.1.41.41.77,1.2-.15,3.72-.09.25-.12.51-.09.76.22,1.78.34,3.45.35,4.96,0,1.59-.12,3.36-.35,5.24-.03.26,0,.52.09.77.92,2.53.56,3.32.15,3.73-.2.2-.52.43-1.23.43ZM18.69,22.63c.28,0,.56.05.85.15,1.12.39,1.76.47,2.1.47h0c.38,0,.48-.09.52-.14.21-.21.22-1.03-.38-2.69-.14-.4-.19-.81-.14-1.22.23-1.84.35-3.56.35-5.12,0-1.47-.12-3.09-.34-4.83-.05-.41,0-.83.14-1.23.6-1.66.59-2.47.38-2.67-.27-.27-1.27-.15-2.66.34-.33.12-.71.17-1.12.13l-.34-.03c-1.06-.1-3.13-.27-5.01-.27-1.88,0-3.95.17-5.01.27l-.33.03c-.39.04-.78,0-1.13-.13-1.39-.48-2.38-.61-2.66-.34-.21.21-.22,1.02.38,2.68.15.42.19.84.14,1.24-.22,1.78-.34,3.41-.34,4.83,0,1.5.11,3.22.34,5.11.05.41,0,.82-.14,1.23-.6,1.67-.59,2.48-.39,2.69.27.27,1.25.14,2.62-.33.35-.12.72-.17,1.1-.13l.4.04c1.31.12,3.24.27,5.01.27,1.76,0,3.7-.15,5.01-.27l.39-.04c.09,0,.17-.01.26-.01Z"></path><path class="cls-2" d="M25.6,20.06c-.61,0-1.42-.18-2.42-.52-.26-.09-.4-.38-.31-.64s.38-.4.64-.31c1.01.35,1.63.45,1.99.47.03,0,.06,0,.09,0,.38,0,.48-.09.52-.14.21-.21.22-1.03-.38-2.69-.14-.4-.19-.81-.14-1.22.23-1.85.34-3.57.34-5.11,0-1.47-.12-3.09-.34-4.83-.05-.41,0-.83.14-1.23.6-1.65.59-2.47.38-2.67-.27-.27-1.27-.15-2.66.34-.33.12-.71.17-1.12.13l-.35-.04c-1.06-.1-3.13-.27-5.01-.27-1.87,0-3.94.17-5.01.27l-.33.03c-.4.04-.78,0-1.13-.13-1.39-.48-2.38-.61-2.66-.34-.21.21-.22,1.02.38,2.68.09.26-.04.55-.3.64-.26.09-.55-.04-.64-.3-.91-2.52-.56-3.31-.15-3.72.41-.41,1.2-.77,3.69.1.22.08.46.1.71.08l.33-.03c1.33-.12,3.29-.27,5.11-.28,1.92,0,4.02.18,5.11.28l.34.04c.26.02.49,0,.69-.08,2.5-.87,3.3-.51,3.71-.11.41.41.76,1.2-.15,3.72-.09.25-.12.51-.09.76.22,1.78.34,3.44.35,4.96,0,1.59-.12,3.35-.35,5.24-.03.26,0,.51.09.77.91,2.53.56,3.33.15,3.73-.19.19-.48.4-1.1.43-.04,0-.08.01-.12.01Z"></path></g></g></g></svg>