<svg xmlns="http://www.w3.org/2000/svg" id="Layer_2" data-name="Layer 2" viewBox="0 0 30 30"><defs><style>      .cls-1 {        fill: none;      }      .cls-2 {        fill: #3a3a3a;      }    </style></defs><g id="Layer_1-2" data-name="Layer 1"><g><rect class="cls-1" width="30" height="30"></rect><path class="cls-2" d="M29.39.54c-.87-.16-1.75.08-2.43.65-.02.02-.04.04-.06.06l-2.2-.39C18.26-.29,11.74-.29,5.3.86l-2.2.39s-.04-.04-.06-.06C2.37.62,1.48.39.61.54l-.41.07v16.89c0,.68.56,1.24,1.24,1.24h27.12c.68,0,1.24-.56,1.24-1.24V.61l-.41-.07ZM4.38,9.8c0-.49.4-.89.89-.89h19.73c.49,0,.89.4.89.89s-.4.89-.89.89H5.27c-.49,0-.89-.4-.89-.89ZM4.1,11.69h21.79v1.9H4.1v-1.9ZM5.48,1.84c6.32-1.12,12.73-1.12,19.05,0l1.69.3c-.2.41-.32.85-.32,1.32v4.68c-.27-.14-.57-.23-.89-.23H5.27c-.44,0-.84.16-1.17.41V3.47c0-.47-.11-.91-.32-1.32l1.69-.3ZM3.1,17.75h-1.66c-.13,0-.24-.11-.24-.24V1.5c.44.01.86.17,1.2.46.45.38.71.93.71,1.51v14.28ZM4.1,17.75v-3.15h21.79v3.15H4.1ZM28.8,17.51c0,.13-.11.24-.24.24h-1.66V3.47c0-.58.26-1.14.71-1.51.34-.29.76-.44,1.2-.46v16.01Z"></path></g></g></svg>