<svg xmlns="http://www.w3.org/2000/svg" id="Layer_2" data-name="Layer 2" viewBox="0 0 30 30"><defs><style>      .cls-1 {        fill: none;      }      .cls-2 {        fill: #3a3a3a;      }    </style></defs><g id="Layer_1-2" data-name="Layer 1"><g><rect class="cls-1" width="30" height="30"></rect><g><path class="cls-2" d="M29.6,8.58c-.24-.34-.64-.55-1.09-.55-.1,0-.19.02-.29.03l-2.01-6.51c-.26-.92-1.24-1.56-2.39-1.56H6.19c-1.15,0-2.13.64-2.39,1.55l-2.02,6.52c-.11,0-.21-.03-.31-.03-.42,0-.82.21-1.06.55-.24.34-.31.78-.17,1.18l2.04,2.87c.26.36.65.59,1.08.67l-1.45,6.41c-.03.15,0,.3.1.42.09.12.24.19.39.19h1.16c.22,0,.42-.15.48-.36l1.89-6.62h18.15l1.89,6.62c.06.21.26.36.48.36h1.16c.15,0,.3-.07.39-.19.09-.12.13-.27.1-.42l-1.45-6.41c.43-.08.82-.31,1.08-.67l1.97-2.74.07-.13c.14-.4.07-.83-.17-1.18ZM4.76,1.83c.13-.48.74-.83,1.43-.83h17.64c.69,0,1.29.35,1.43.84l1.98,6.41c-.71.21-1.4.57-2.01,1.1l-.22.19H4.99l-.22-.19c-.61-.53-1.3-.89-2.01-1.1l1.99-6.42ZM3.18,19.32h-.16l1.35-5.98h.52l-1.71,5.98ZM26.82,19.32l-1.71-5.98h.52l1.35,5.98h-.16ZM26.92,12.04c-.13.18-.34.29-.56.29H3.64c-.22,0-.43-.11-.56-.29l-1.92-2.67c-.02-.1.02-.17.05-.21.03-.04.11-.13.27-.13.9,0,1.84.39,2.64,1.07l.5.43h20.77l.5-.43c.8-.69,1.73-1.07,2.66-1.07.14,0,.22.09.25.13.03.04.07.12.05.21l-1.92,2.67Z"></path><path class="cls-2" d="M10.23,5.81c.38,0,.68-.31.68-.68s-.31-.68-.68-.68-.68.31-.68.68.31.68.68.68Z"></path><path class="cls-2" d="M19.77,5.81c.38,0,.68-.31.68-.68s-.31-.68-.68-.68-.68.31-.68.68.31.68.68.68Z"></path></g></g></g></svg>