<svg xmlns="http://www.w3.org/2000/svg" id="Layer_2" data-name="Layer 2" viewBox="0 0 30 30"><defs><style>      .cls-1 {        fill: none;      }      .cls-2 {        fill: #3a3a3a;      }    </style></defs><g id="Layer_1-2" data-name="Layer 1"><g><rect class="cls-1" width="30" height="30"></rect><path class="cls-2" d="M28.28,0H1.72C.88,0,.21.68.21,1.51v18.08h8.15v-11.5c.1.02.19.06.29.06h12.72c.1,0,.19-.04.29-.06v11.5h8.15V1.51c0-.83-.68-1.51-1.51-1.51ZM2.89,8.15h4.47v4.27H2.89v-4.27ZM7.35,6.86v.29H2.89V2.82h4.47v4.04ZM2.89,18.59v-5.17h4.47v5.17H2.89ZM8.64,7.15c-.16,0-.29-.13-.29-.29V2.82h6.15v4.33h-5.86ZM21.36,7.15h-5.86V2.82h6.15v4.04c0,.16-.13.29-.29.29ZM22.65,8.15h4.47v4.27h-4.47v-4.27ZM27.11,7.15h-4.47V2.82h4.47v4.33ZM22.65,13.42h4.47v5.17h-4.47v-5.17ZM28.79,18.59h-.68V1.82H1.89v16.77h-.68V1.51c0-.28.23-.51.51-.51h26.57c.28,0,.51.23.51.51v17.08Z"></path></g></g></svg>