<svg xmlns="http://www.w3.org/2000/svg" id="Layer_2" data-name="Layer 2" viewBox="0 0 30 30"><defs><style>      .cls-1 {        fill: none;      }      .cls-2 {        fill: #3a3a3a;      }    </style></defs><g id="Layer_1-2" data-name="Layer 1"><g><rect class="cls-1" width="30" height="30"></rect><g><path class="cls-2" d="M29.96,0H.04v2.81h1.37v21.64c0,.28.22.5.5.5h1.5c.28,0,.5-.22.5-.5V2.81h22.2v21.64c0,.28.22.5.5.5h1.5c.28,0,.5-.22.5-.5V2.81h1.37V0ZM2.9,23.95h-.5V2.81h.5v21.14ZM27.6,23.95h-.5V2.81h.5v21.14ZM28.96,1.81H1.04v-.81h27.93v.81Z"></path><path class="cls-2" d="M4.84,6.99h.72v17.46c0,.28.22.5.5.5h1.5c.28,0,.5-.22.5-.5V6.99h13.9v17.46c0,.28.22.5.5.5h1.5c.28,0,.5-.22.5-.5V6.99h.72v-2.8H4.84v2.8ZM7.05,23.95h-.5V6.99h.5v16.96ZM23.44,23.95h-.5V6.99h.5v16.96ZM5.84,5.18h18.33v.8H5.84v-.8Z"></path><path class="cls-2" d="M9.06,11.19h.66v13.26c0,.28.22.5.5.5h1.5c.28,0,.5-.22.5-.5v-13.26h5.57v13.26c0,.28.22.5.5.5h1.5c.28,0,.5-.22.5-.5v-13.26h.66v-2.81h-11.88v2.81ZM11.21,23.95h-.5v-12.76h.5v12.76ZM19.28,23.95h-.5v-12.76h.5v12.76ZM10.06,9.38h9.88v.81h-9.88v-.81Z"></path></g></g></g></svg>