<svg xmlns="http://www.w3.org/2000/svg" id="Layer_2" data-name="Layer 2" viewBox="0 0 30 30"><defs><style>      .cls-1 {        fill: none;      }      .cls-2 {        fill: #3a3a3a;      }    </style></defs><g id="Layer_1-2" data-name="Layer 1"><g><rect class="cls-1" width="30" height="30"></rect><g><path class="cls-2" d="M13.49,13.85h-6.5c-1.11,0-2.01.9-2.01,2.01v6.5c0,1.11.9,2.01,2.01,2.01h6.5c1.11,0,2.01-.9,2.01-2.01v-6.5c0-1.11-.9-2.01-2.01-2.01ZM14.5,22.37c0,.56-.46,1.01-1.01,1.01h-6.5c-.56,0-1.01-.46-1.01-1.01v-6.5c0-.56.46-1.01,1.01-1.01h6.5c.56,0,1.01.46,1.01,1.01v6.5Z"></path><path class="cls-2" d="M27.95,0H2.05C1.03,0,.2.83.2,1.85v7.15c0,.85.69,1.54,1.54,1.54h17.53v13.19c0,1.14.93,2.07,2.07,2.07h6.39c1.14,0,2.07-.93,2.07-2.07V1.85c0-1.02-.83-1.85-1.84-1.85ZM27.95,1c.47,0,.84.38.84.85v14.72h-.69c-.31,0-.55-.25-.55-.56V2.43h-7.29v-1.43h7.69ZM20.27,3.43h6.29v6.1h-6.29V3.43ZM19.27,1v1.43h-8.53v-1.43h8.53ZM2.05,1h7.69v1.43H1.2v-.58c0-.47.38-.85.85-.85ZM1.74,9.53c-.3,0-.54-.24-.54-.54V3.43h8.53v6.1H1.74ZM10.73,3.43h8.53v6.1h-8.53V3.43ZM27.73,24.79h-6.39c-.59,0-1.07-.48-1.07-1.07v-13.19h6.29v5.47c0,.86.7,1.56,1.55,1.56h.69v6.16c0,.59-.48,1.07-1.07,1.07Z"></path></g></g></g></svg>