<svg xmlns="http://www.w3.org/2000/svg" id="Layer_2" data-name="Layer 2" viewBox="0 0 30 30"><defs><style>      .cls-1 {        fill: none;      }      .cls-2 {        fill: #3a3a3a;      }    </style></defs><g id="Layer_1-2" data-name="Layer 1"><g><rect class="cls-1" width="30" height="30"></rect><path class="cls-2" d="M28.12,6.39c-.48-.08-.97.02-1.39.27v-3.52c0-1.73-1.41-3.14-3.15-3.14H6.42c-1.73,0-3.14,1.41-3.14,3.14v3.52c-.46-.27-1.01-.37-1.55-.23-.9.22-1.52,1.06-1.52,2.04v5.03c0,1.08.7,2,1.67,2.34v2.96c0,.28.22.5.5.5h1.87c.28,0,.5-.22.5-.5v-2.81h20.52v2.81c0,.28.22.5.5.5h1.87c.28,0,.5-.22.5-.5v-2.95c.97-.34,1.67-1.25,1.67-2.34v-4.99c0-1.04-.72-1.94-1.68-2.11ZM24.05,8.91c.92,0,1.67.75,1.67,1.67v.61H4.28v-.66c.03-.9.76-1.62,1.67-1.62h18.11ZM25.73,3.14v5.37c-.46-.37-1.04-.6-1.67-.6h-8.55V1h8.08c1.18,0,2.15.96,2.15,2.14ZM6.42,1h8.08v6.91H5.95c-.63,0-1.21.23-1.67.6v-.11s0-.03,0-.04V3.14c0-1.18.96-2.14,2.14-2.14ZM3.74,18.29h-.87v-2.31h.87v2.31ZM27.13,18.29h-.87v-2.31h.87v2.31ZM28.8,13.5c0,.82-.67,1.49-1.48,1.49H2.69c-.82,0-1.49-.67-1.49-1.49v-5.03c0-.51.32-.96.76-1.07.09-.02.19-.04.28-.04.23,0,.45.07.64.22.25.19.39.49.4.8v3.81h0s23.45,0,23.45,0v-3.8c0-.31.14-.6.37-.8.24-.2.53-.28.84-.23.49.09.86.57.86,1.13v4.99Z"></path></g></g></svg>