<svg xmlns="http://www.w3.org/2000/svg" id="Layer_2" data-name="Layer 2" viewBox="0 0 30 30"><defs><style>      .cls-1 {        fill: none;      }      .cls-2 {        fill: #3a3a3a;      }    </style></defs><g id="Layer_1-2" data-name="Layer 1"><g><rect class="cls-1" width="30" height="30"></rect><g><path class="cls-2" d="M27.47,0H2.53c-.7,0-1.27.57-1.27,1.27v24.31c0,.7.57,1.27,1.27,1.27h8.05s0,0,0,0,0,0,0,0h8.82s0,0,0,0,0,0,0,0h8.05c.7,0,1.27-.57,1.27-1.27V1.27c0-.7-.57-1.27-1.27-1.27ZM10.09,25.84H2.53c-.15,0-.27-.12-.27-.27v-2.57h7.82v2.84ZM18.91,25.84h-7.83v-2.84h7.83v2.84ZM27.74,25.58c0,.15-.12.27-.27.27h-7.56v-2.84h7.82v2.57ZM27.74,22H2.26V1.27c0-.15.12-.27.27-.27h24.94c.15,0,.27.12.27.27v20.74Z"></path><path class="cls-2" d="M25.99,3H4.01c-.7,0-1.27.57-1.27,1.27s.57,1.26,1.27,1.26h21.98c.7,0,1.27-.57,1.27-1.26s-.57-1.27-1.27-1.27ZM25.99,4.53H4.01c-.15,0-.27-.12-.27-.26s.12-.27.27-.27h21.98c.15,0,.27.12.27.27s-.12.26-.27.26Z"></path><path class="cls-2" d="M22.39,9.26H7.61c-.28,0-.5.22-.5.5v7.7c0,.28.22.5.5.5h14.78c.28,0,.5-.22.5-.5v-7.7c0-.28-.22-.5-.5-.5ZM21.89,16.96h-13.78v-6.7h13.78v6.7Z"></path></g></g></g></svg>