<svg xmlns="http://www.w3.org/2000/svg" id="Layer_2" data-name="Layer 2" viewBox="0 0 28.18 28.18"><g id="Layer_1-2" data-name="Layer 1"><g><path d="M22.39,17.25h0c-1.29-1.28-3.02-1.28-4.31,0-.57.57-1.16,1.15-1.74,1.74-.06-.03-.12-.06-.18-.09-.25-.12-.49-.24-.7-.37-1.7-1.07-3.26-2.49-4.78-4.36-.67-.82-1.16-1.57-1.51-2.31.49-.48.98-.97,1.45-1.45l.28-.28c1.32-1.33,1.32-3.05,0-4.38-.26-.27-.53-.53-.79-.8s-.52-.52-.79-.79c-.18-.18-.36-.36-.54-.54-.36-.36-.73-.73-1.1-1.09-1.29-1.26-3.02-1.25-4.3,0-.28.27-.55.55-.81.82-.39.39-.79.8-1.19,1.18C.56,5.29.11,6.25.02,7.4c-.13,1.75.35,3.31.78,4.46.97,2.61,2.45,5.08,4.52,7.54,2.58,3.07,5.69,5.5,9.24,7.23,1.97.96,3.66,1.45,5.32,1.54.12,0,.24.01.36.01,1.46,0,2.65-.51,3.56-1.53.36-.4.74-.77,1.15-1.17.21-.21.43-.42.65-.64,1.29-1.31,1.3-3.06,0-4.36-1.08-1.09-2.18-2.18-3.24-3.23ZM24.17,23.41c-.2.2-.42.41-.62.61-.42.4-.85.82-1.25,1.27-.57.64-1.28.9-2.29.84-1.4-.08-2.8-.49-4.55-1.33-3.29-1.6-6.18-3.86-8.58-6.71-1.92-2.28-3.28-4.55-4.17-6.94-.54-1.43-.74-2.54-.66-3.59.05-.64.28-1.14.72-1.55.42-.4.84-.82,1.24-1.22.26-.26.53-.53.8-.8.24-.24.48-.36.73-.36s.48.12.73.36c.36.35.72.72,1.08,1.07.18.18.36.37.54.54.26.27.53.53.79.8.26.26.52.52.79.79.54.54.54.98,0,1.51l-.28.29c-.55.56-1.12,1.13-1.69,1.68h-.01c-.46.47-.57,1.06-.32,1.66.44,1.04,1.06,2.04,1.95,3.14,1.66,2.04,3.39,3.61,5.28,4.8.3.18.59.33.88.47.17.08.33.16.48.25.62.35,1.27.24,1.77-.28.66-.67,1.34-1.35,2-2,.48-.48.96-.48,1.44,0,1.06,1.05,2.15,2.14,3.23,3.22.5.5.5.98-.01,1.49Z"></path><path d="M20.59,13.47l2.09-.36c-.33-1.92-1.23-3.65-2.61-5.03-1.45-1.45-3.29-2.37-5.31-2.65l-.29,2.1c1.57.22,2.99.93,4.12,2.05,1.06,1.06,1.76,2.41,2.01,3.89Z"></path><path d="M26.1,13.1l2.09-.36c-.55-3.18-2.05-6.06-4.33-8.35C21.44,1.99,18.4.47,15.03,0l-.29,2.1c2.91.41,5.54,1.72,7.62,3.8,1.97,1.97,3.27,4.47,3.74,7.21Z"></path></g></g></svg>