<svg xmlns="http://www.w3.org/2000/svg" id="Layer_2" data-name="Layer 2" viewBox="0 0 17.49 13.3"><defs><style>      .cls-1 {        fill: #020202;      }    </style></defs><g id="Isolation_Mode" data-name="Isolation Mode"><g><path class="cls-1" d="M12.31,5.66l2.8-1.6c.27-.16.37-.5.21-.78-.16-.27-.5-.37-.78-.21-.23.13-5.54,3.16-5.8,3.31-.26-.15-5.57-3.17-5.8-3.31-.27-.16-.62-.06-.78.21-.16.27-.06.62.21.78l2.8,1.6-3.15,3.7c-.2.24-.17.6.06.8.24.2.6.17.8-.06l3.29-3.87,2.27,1.3c.18.1.39.1.56,0l2.27-1.3,3.29,3.87c.2.24.56.27.8.06.24-.2.27-.56.06-.8l-3.15-3.7Z"></path><path class="cls-1" d="M15.78,0H1.71C.77,0,0,.77,0,1.71v9.88c0,.94.77,1.71,1.71,1.71h14.07c.94,0,1.71-.77,1.71-1.71V1.71c0-.94-.77-1.71-1.71-1.71ZM16.35,11.59c0,.31-.26.57-.57.57H1.71c-.31,0-.57-.26-.57-.57V1.71c0-.31.26-.57.57-.57h14.07c.31,0,.57.26.57.57v9.88Z"></path></g></g></svg>